<svg id="Livello_1" data-name="Livello 1" xmlns="http://www.w3.org/2000/svg" viewBox="0 0 907.09 907.09"><title>log</title><polygon points="339.8 326.37 198.2 326.37 127.39 449 198.2 571.63 339.8 571.63 410.61 449 339.8 326.37" style="fill:none;stroke:#ad5417;stroke-miterlimit:10;stroke-width:8px"/><polygon points="292.68 405.8 239.32 405.8 212.65 452 239.32 498.2 292.68 498.2 319.35 452 292.68 405.8" style="fill:none;stroke:#ad5417;stroke-miterlimit:10;stroke-width:8px"/><polygon points="303.77 386.58 228.23 386.58 190.46 452 228.23 517.42 303.77 517.42 341.54 452 303.77 386.58" style="fill:none;stroke:#ad5417;stroke-miterlimit:10;stroke-width:8px"/><polygon points="315.04 367.06 216.96 367.06 167.92 452 216.96 536.94 315.04 536.94 364.08 452 315.04 367.06" style="fill:none;stroke:#ad5417;stroke-miterlimit:10;stroke-width:8px"/><polygon points="324.67 350.38 207.33 350.38 148.66 452 207.33 553.62 324.67 553.62 383.34 452 324.67 350.38" style="fill:none;stroke:#ad5417;stroke-miterlimit:10;stroke-width:8px"/><polyline points="339.8 326.37 695 326.37 695.8 326.37 766.61 449 695.8 571.63 695 573 339.8 573" style="fill:none;stroke:#ad5417;stroke-miterlimit:10;stroke-width:8px"/></svg>